<svg width="31" height="18" viewBox="0 0 31 18" fill="none" xmlns="http://www.w3.org/2000/svg">
<path d="M11.1372 13.6309H5.22998L4.10693 17H0.524414L6.61133 0.648438H9.7334L15.854 17H12.2715L11.1372 13.6309ZM6.13965 10.9019H10.2275L8.17236 4.78125L6.13965 10.9019ZM30.5659 9.19482C30.5659 10.8045 30.2814 12.2158 29.7124 13.4287C29.1434 14.6416 28.3273 15.5775 27.2642 16.2363C26.2085 16.8952 24.9956 17.2246 23.6255 17.2246C22.2703 17.2246 21.0612 16.8989 19.998 16.2476C18.9349 15.5962 18.1113 14.6678 17.5273 13.4624C16.9434 12.2495 16.6476 10.8569 16.6401 9.28467V8.47607C16.6401 6.86637 16.9284 5.45133 17.5049 4.23096C18.0889 3.00309 18.9087 2.06348 19.9644 1.41211C21.0275 0.753255 22.2404 0.423828 23.603 0.423828C24.9657 0.423828 26.1748 0.753255 27.2305 1.41211C28.2936 2.06348 29.1134 3.00309 29.6899 4.23096C30.2739 5.45133 30.5659 6.86263 30.5659 8.46484V9.19482ZM27.1519 8.45361C27.1519 6.7391 26.8449 5.43636 26.231 4.54541C25.617 3.65446 24.741 3.20898 23.603 3.20898C22.4725 3.20898 21.6003 3.65072 20.9863 4.53418C20.3724 5.41016 20.0617 6.69792 20.0542 8.39746V9.19482C20.0542 10.8644 20.3612 12.1597 20.9751 13.0806C21.589 14.0015 22.4725 14.4619 23.6255 14.4619C24.756 14.4619 25.6245 14.0202 26.231 13.1367C26.8374 12.2458 27.1444 10.9505 27.1519 9.25098V8.45361Z" fill="white"/>
</svg>
